HIERARCHY
ROOT Hips
{
 OFFSET 0.000000 0.000000 0.000000
 CHANNELS 6 Xposition Yposition Zposition Yrotation Xrotation Zrotation
 JOINT Chest
 {
  OFFSET 0.000000 9.857222 0.000240
  CHANNELS 3 Yrotation Xrotation Zrotation
  JOINT Chest2
  {
   OFFSET 0.000000 10.876940 -0.000436
   CHANNELS 3 Yrotation Xrotation Zrotation
   JOINT Chest3
   {
    OFFSET 0.000000 9.827798 0.000000
    CHANNELS 3 Yrotation Xrotation Zrotation
    JOINT Chest4
    {
     OFFSET 0.000000 9.827798 0.000000
     CHANNELS 3 Yrotation Xrotation Zrotation
     JOINT Neck
     {
      OFFSET 0.000000 13.831992 0.000000
      CHANNELS 3 Yrotation Xrotation Zrotation
      JOINT Head
      {
       OFFSET 0.000000 9.147643 -0.001036
       CHANNELS 3 Yrotation Xrotation Zrotation
       End Site
       {
        OFFSET 0.000000 17.515799 -0.000541
       }
      }
     }
     JOINT RightCollar
     {
      OFFSET -3.001579 7.717577 0.000000
      CHANNELS 3 Yrotation Xrotation Zrotation
      JOINT RightShoulder
      {
       OFFSET -14.002642 0.000000 0.000000
       CHANNELS 3 Yrotation Xrotation Zrotation
       JOINT RightElbow
       {
        OFFSET -30.053852 0.000000 0.000000
        CHANNELS 3 Yrotation Xrotation Zrotation
        JOINT RightWrist
        {
         OFFSET -24.564923 0.000000 -0.000000
         CHANNELS 3 Yrotation Xrotation Zrotation
         End Site
         {
          OFFSET -18.334355 0.000000 0.000000
         }
        }
       }
      }
     }
     JOINT LeftCollar
     {
      OFFSET 3.001579 7.717577 0.000000
      CHANNELS 3 Yrotation Xrotation Zrotation
      JOINT LeftShoulder
      {
       OFFSET 14.002642 0.000000 0.000000
       CHANNELS 3 Yrotation Xrotation Zrotation
       JOINT LeftElbow
       {
        OFFSET 30.053852 0.000000 0.000000
        CHANNELS 3 Yrotation Xrotation Zrotation
        JOINT LeftWrist
        {
         OFFSET 24.564923 0.000000 -0.000000
         CHANNELS 3 Yrotation Xrotation Zrotation
         End Site
         {
          OFFSET 18.334355 0.000000 0.000000
         }
        }
       }
      }
     }
    }
   }
  }
 }
 JOINT RightHip
 {
  OFFSET -8.003235 -0.001175 -0.000120
  CHANNELS 3 Yrotation Xrotation Zrotation
  JOINT RightKnee
  {
   OFFSET 0.000000 -41.759727 0.000113
   CHANNELS 3 Yrotation Xrotation Zrotation
   JOINT RightAnkle
   {
    OFFSET 0.000000 -40.728748 0.000159
    CHANNELS 3 Yrotation Xrotation Zrotation
    JOINT RightToe
    {
     OFFSET 0.000000 -6.515296 14.732841
     CHANNELS 3 Yrotation Xrotation Zrotation
     End Site
     {
      OFFSET 0.000000 -1.502839 6.412115
     }
    }
   }
  }
 }
 JOINT LeftHip
 {
  OFFSET 8.003235 -0.001175 -0.000120
  CHANNELS 3 Yrotation Xrotation Zrotation
  JOINT LeftKnee
  {
   OFFSET 0.000000 -41.759727 0.000113
   CHANNELS 3 Yrotation Xrotation Zrotation
   JOINT LeftAnkle
   {
    OFFSET 0.000000 -40.728748 0.000159
    CHANNELS 3 Yrotation Xrotation Zrotation
    JOINT LeftToe
    {
     OFFSET 0.000000 -6.515296 14.732841
     CHANNELS 3 Yrotation Xrotation Zrotation
     End Site
     {
      OFFSET 0.000000 -1.502839 6.412115
     }
    }
   }
  }
 }
}
MOTION
Frames: 7
Frame Time: 0.016667
0.000000 88.822259 0.000000 0.000000 -5.826342 0.000000 0.000000 11.116423 0.000000 0.000000 -5.290081 0.000000 0.000000 0.000000 0.000000 0.000000 0.000000 0.000000 0.000000 12.665069 0.000000 0.000000 0.575450 0.000000 0.000000 0.000000 0.000000 0.000000 0.000000 0.000000 2.337306 0.000000 0.000000 -2.337306 0.000000 0.000000 0.000000 0.000000 0.000000 0.000000 0.000000 0.000000 -2.337306 0.000000 0.000000 2.337306 0.000000 0.000000 0.000000 8.578828 0.000000 0.000000 1.905768 0.000000 0.000000 -4.658254 0.000000 0.000000 0.000000 0.000000 0.000000 8.578828 0.000000 0.000000 1.905768 0.000000 0.000000 -4.658254 0.000000 0.000000 0.000000 0.000000
12.675331 90.862095 5.049048 -36.039771 -10.157660 1.957244 4.163458 6.373998 -0.090238 1.884612 2.845877 -0.084507 1.884612 2.845877 -0.084507 1.413562 2.134171 -0.072151 -5.663792 21.405158 2.694028 -11.028261 4.011962 6.487813 1.041763 8.677055 10.130139 56.616462 15.917419 79.749586 49.761516 -40.094813 -25.461104 0.883115 -4.514156 -5.363258 -14.894540 14.762647 -9.705641 -38.865293 3.028824 -65.210385 -27.818231 8.738975 -4.420311 18.687703 -4.725581 -8.347638 1.819350 13.919490 -1.345593 5.940442 1.752270 0.706065 3.698387 -3.828715 -3.082693 0.032553 0.084661 0.072688 3.219732 9.923550 -6.283060 2.892345 5.364826 3.301574 0.292779 -4.727109 0.878979 -0.070064 -0.016916 -0.041699
12.666537 90.862288 5.037225 -36.045259 -10.130166 1.959737 4.159187 6.381950 -0.103406 1.883237 2.849975 -0.089314 1.883237 2.849975 -0.089314 1.412553 2.137230 -0.075761 -5.639000 21.409428 2.711815 -10.988074 4.019353 6.512666 1.044476 8.670736 10.144467 56.647222 15.923505 79.753333 49.781823 -40.144068 -25.417170 0.890680 -4.522392 -5.351393 -14.896442 14.764938 -9.699559 -38.864381 3.021705 -65.179461 -27.770826 8.799403 -4.429154 18.705705 -4.728643 -8.373690 1.794192 13.887656 -1.343782 5.955299 1.753170 0.703514 3.707385 -3.825812 -3.095027 0.031326 0.085226 0.064054 3.227631 9.897712 -6.281496 2.916334 5.352123 3.306684 0.287987 -4.711233 0.882957 -0.069897 -0.016920 -0.049797
12.659258 90.862764 5.028272 -36.045150 -10.132499 1.961539 4.151135 6.401817 -0.116003 1.879499 2.859465 -0.093816 1.879499 2.859465 -0.093816 1.409771 2.144334 -0.079149 -5.609063 21.414423 2.729214 -10.938414 4.027509 6.535326 1.056318 8.669840 10.158902 56.657736 15.914717 79.760656 49.814248 -40.188611 -25.409632 0.896290 -4.528803 -5.333854 -14.894283 14.769045 -9.697478 -38.868013 3.025385 -65.147146 -27.734236 8.800194 -4.444118 18.727725 -4.693210 -8.393795 1.756460 13.889398 -1.345098 5.966074 1.755052 0.706042 3.727193 -3.826618 -3.106692 0.028537 0.083501 0.053274 3.233920 9.901410 -6.286234 2.939860 5.337430 3.320459 0.285962 -4.692802 0.887391 -0.069946 -0.018252 -0.056907
12.649260 90.864092 5.020507 -36.042572 -10.135386 1.957651 4.144722 6.420286 -0.123179 1.876769 2.868594 -0.098118 1.876769 2.868594 -0.098118 1.407743 2.151168 -0.082390 -5.580477 21.421088 2.744717 -10.890539 4.038678 6.554780 1.061131 8.667548 10.170678 56.654717 15.904625 79.769278 49.830746 -40.208698 -25.404269 0.905234 -4.534210 -5.313746 -14.894389 14.766340 -9.694217 -38.883987 3.040039 -65.127574 -27.708287 8.817569 -4.443174 18.736389 -4.687610 -8.425993 1.697906 13.889842 -1.349642 5.983520 1.757852 0.711773 3.769966 -3.826635 -3.116916 0.025356 0.080309 0.042919 3.251117 9.906769 -6.271961 2.953433 5.328761 3.323685 0.268958 -4.681443 0.887250 -0.059223 -0.018925 -0.057783
12.639163 90.865107 5.012809 -36.048590 -10.139301 1.951804 4.146535 6.442787 -0.122033 1.871396 2.874795 -0.102427 1.871396 2.874795 -0.102427 1.403735 2.155807 -0.085614 -5.553266 21.429038 2.755860 -10.843831 4.051870 6.566621 1.069423 8.668874 10.177736 56.637465 15.894124 79.769785 49.852683 -40.224534 -25.390774 0.911452 -4.533926 -5.304426 -14.888763 14.767686 -9.701402 -38.910412 3.045265 -65.117589 -27.687436 8.821011 -4.449479 18.744335 -4.695396 -8.434598 1.628922 13.895566 -1.356471 6.014349 1.755526 0.727319 3.785802 -3.815360 -3.127594 0.019117 0.064860 0.029161 3.294256 9.912732 -6.249416 2.970589 5.314596 3.321269 0.223925 -4.663664 0.889964 -0.038000 -0.020592 -0.053723
12.630307 90.864909 5.004779 -36.034057 -10.130164 1.952587 4.133719 6.458436 -0.128345 1.866173 2.882390 -0.107733 1.866173 2.882390 -0.107733 1.399843 2.161487 -0.089592 -5.530870 21.432624 2.766229 -10.805950 4.057391 6.578810 1.065548 8.664328 10.181804 56.596001 15.885648 79.745761 49.871379 -40.226384 -25.360473 0.911757 -4.540381 -5.295758 -14.887712 14.760057 -9.705682 -38.948708 3.060366 -65.101715 -27.677933 8.782819 -4.441292 18.744727 -4.697002 -8.439803 1.507016 13.884923 -1.391516 6.043585 1.754132 0.747945 3.856993 -3.819843 -3.131373 0.014840 0.065768 0.014046 3.325546 9.905909 -6.242364 2.994498 5.304798 3.333622 0.183893 -4.657349 0.890720 -0.024908 -0.017867 -0.054944
